<svg id="Layer_1" data-name="Layer 1" xmlns="http://www.w3.org/2000/svg" viewBox="0 0 200 300"><defs><style>.cls-1{fill:#d1d5db;}.cls-2{fill:none;stroke:#9ca3af;stroke-linecap:round;stroke-linejoin:round;stroke-width:8px;}</style></defs><rect class="cls-1" width="200" height="300"/><path class="cls-2" d="M71.88,187.5h56.25a9.38,9.38,0,0,0,9.37-9.38V121.87a9.38,9.38,0,0,0-9.37-9.37H71.88a9.38,9.38,0,0,0-9.38,9.37v56.25A9.38,9.38,0,0,0,71.88,187.5Zm37.5-56.25h.05m-.05,28.12,7.44-7.44a9.39,9.39,0,0,1,13.24,0l7.44,7.44m-75,9.38L84,147.24a9.4,9.4,0,0,1,13.23,0l21.51,21.51"/></svg>