<svg xmlns="http://www.w3.org/2000/svg" viewBox="0 0 600 300"><defs><style>.cls-1{fill:#d1d5db;}.cls-2{fill:none;stroke:#9ca3af;stroke-linecap:round;stroke-linejoin:round;stroke-width:8px;}</style></defs><g id="Layer_2" data-name="Layer 2"><rect class="cls-1" x="0.01" width="599.97" height="300"/><path class="cls-2" d="M271.88,187.5h56.25a9.38,9.38,0,0,0,9.37-9.38V121.87a9.38,9.38,0,0,0-9.37-9.37H271.88a9.38,9.38,0,0,0-9.38,9.37v56.25A9.38,9.38,0,0,0,271.88,187.5Zm37.5-56.25h.05m-.05,28.12,7.44-7.44a9.39,9.39,0,0,1,13.24,0l7.44,7.44m-75,9.38L284,147.24a9.4,9.4,0,0,1,13.23,0l21.51,21.51"/></g></svg>